<svg width="170" height="154" viewBox="0 0 170 154" fill="none" xmlns="http://www.w3.org/2000/svg">
<path d="M0.419982 95L3.08398 77.36H6.25198L8.91598 95H6.39598L5.91598 91.4H3.41998L2.93998 95H0.419982ZM3.77998 88.664H5.55598L4.81198 82.736L4.73998 81.8H4.59598L4.52398 82.736L3.77998 88.664Z" fill="currentColor"/>
<path d="M0.143982 124.168V121.624C0.255982 121.64 0.339982 121.648 0.395982 121.648C0.755982 121.648 1.03598 121.536 1.23598 121.312C1.43598 121.08 1.53598 120.752 1.53598 120.328V106.36H4.12798V120.736C4.12798 121.496 3.98798 122.132 3.70798 122.644C3.43598 123.156 3.03598 123.54 2.50798 123.796C1.97998 124.052 1.33998 124.18 0.587982 124.18C0.515982 124.18 0.443982 124.18 0.371982 124.18C0.299982 124.18 0.223982 124.176 0.143982 124.168Z" fill="currentColor"/>
<path d="M9.38192 124.192C8.66192 124.192 8.04192 124.024 7.52192 123.688C7.00992 123.352 6.61392 122.896 6.33392 122.32C6.06192 121.744 5.92592 121.096 5.92592 120.376V109.984C5.92592 109.256 6.06192 108.608 6.33392 108.04C6.61392 107.464 7.00992 107.008 7.52192 106.672C8.04192 106.336 8.66192 106.168 9.38192 106.168C10.1019 106.168 10.7179 106.336 11.2299 106.672C11.7499 107.008 12.1459 107.464 12.4179 108.04C12.6979 108.616 12.8379 109.264 12.8379 109.984V120.376C12.8379 121.096 12.6979 121.744 12.4179 122.32C12.1459 122.896 11.7499 123.352 11.2299 123.688C10.7179 124.024 10.1019 124.192 9.38192 124.192ZM9.38192 121.672C9.70192 121.672 9.92592 121.54 10.0539 121.276C10.1819 121.004 10.2459 120.704 10.2459 120.376V109.984C10.2459 109.656 10.1779 109.36 10.0419 109.096C9.90592 108.824 9.68592 108.688 9.38192 108.688C9.08592 108.688 8.86592 108.824 8.72192 109.096C8.58592 109.36 8.51792 109.656 8.51792 109.984V120.376C8.51792 120.704 8.58592 121.004 8.72192 121.276C8.85792 121.54 9.07792 121.672 9.38192 121.672Z" fill="currentColor"/>
<path d="M14.6475 124V106.36H17.2395C18.7915 106.36 19.9355 106.792 20.6715 107.656C21.4075 108.512 21.7755 109.776 21.7755 111.448C21.7755 112.44 21.5995 113.3 21.2475 114.028C20.9035 114.748 20.4835 115.276 19.9875 115.612L21.7515 124H19.1595L17.6955 116.56H17.2395V124H14.6475ZM17.2395 114.16C17.7195 114.16 18.0995 114.056 18.3795 113.848C18.6595 113.632 18.8595 113.328 18.9795 112.936C19.0995 112.544 19.1595 112.08 19.1595 111.544C19.1595 110.704 19.0195 110.06 18.7395 109.612C18.4675 109.156 17.9675 108.928 17.2395 108.928V114.16Z" fill="currentColor"/>
<path d="M23.2256 124V106.36H25.6496L28.0496 115.552L28.2656 116.368H28.4096V106.36H30.7856V124H28.6016L25.9616 114.808L25.7456 113.992H25.6016V124H23.2256Z" fill="currentColor"/>
<path d="M32.1544 124L34.8184 106.36H37.9864L40.6504 124H38.1304L37.6504 120.4H35.1544L34.6744 124H32.1544ZM35.5144 117.664H37.2904L36.5464 111.736L36.4744 110.8H36.3304L36.2584 111.736L35.5144 117.664Z" fill="currentColor"/>
<path d="M42.0225 124V106.36H44.6625C45.4945 106.36 46.1985 106.496 46.7745 106.768C47.3505 107.04 47.8145 107.504 48.1665 108.16C48.5185 108.816 48.7705 109.716 48.9225 110.86C49.0825 112.004 49.1625 113.448 49.1625 115.192C49.1625 116.944 49.0825 118.392 48.9225 119.536C48.7705 120.672 48.5185 121.568 48.1665 122.224C47.8145 122.872 47.3505 123.332 46.7745 123.604C46.1985 123.868 45.4945 124 44.6625 124H42.0225ZM44.6145 121.408C45.2545 121.408 45.7065 121.156 45.9705 120.652C46.2345 120.148 46.3945 119.428 46.4505 118.492C46.5065 117.556 46.5345 116.444 46.5345 115.156C46.5345 113.852 46.5065 112.74 46.4505 111.82C46.3945 110.892 46.2305 110.184 45.9585 109.696C45.6945 109.2 45.2465 108.952 44.6145 108.952V121.408Z" fill="currentColor"/>
<path d="M50.4122 124L53.0762 106.36H56.2442L58.9082 124H56.3882L55.9082 120.4H53.4122L52.9322 124H50.4122ZM53.7722 117.664H55.5482L54.8042 111.736L54.7322 110.8H54.5882L54.5162 111.736L53.7722 117.664Z" fill="currentColor"/>
<path d="M0.959982 153V135.36H3.59998C4.43198 135.36 5.13598 135.496 5.71198 135.768C6.28798 136.04 6.75198 136.504 7.10398 137.16C7.45598 137.816 7.70798 138.716 7.85998 139.86C8.01998 141.004 8.09998 142.448 8.09998 144.192C8.09998 145.944 8.01998 147.392 7.85998 148.536C7.70798 149.672 7.45598 150.568 7.10398 151.224C6.75198 151.872 6.28798 152.332 5.71198 152.604C5.13598 152.868 4.43198 153 3.59998 153H0.959982ZM3.55198 150.408C4.19198 150.408 4.64398 150.156 4.90798 149.652C5.17198 149.148 5.33198 148.428 5.38798 147.492C5.44398 146.556 5.47198 145.444 5.47198 144.156C5.47198 142.852 5.44398 141.74 5.38798 140.82C5.33198 139.892 5.16798 139.184 4.89598 138.696C4.63198 138.2 4.18398 137.952 3.55198 137.952V150.408Z" fill="currentColor"/>
<path d="M13.2257 153.192C12.5057 153.192 11.8857 153.024 11.3657 152.688C10.8537 152.352 10.4577 151.896 10.1777 151.32C9.90567 150.744 9.76967 150.096 9.76967 149.376V138.984C9.76967 138.256 9.90567 137.608 10.1777 137.04C10.4577 136.464 10.8537 136.008 11.3657 135.672C11.8857 135.336 12.5057 135.168 13.2257 135.168C13.9457 135.168 14.5617 135.336 15.0737 135.672C15.5937 136.008 15.9897 136.464 16.2617 137.04C16.5417 137.616 16.6817 138.264 16.6817 138.984V149.376C16.6817 150.096 16.5417 150.744 16.2617 151.32C15.9897 151.896 15.5937 152.352 15.0737 152.688C14.5617 153.024 13.9457 153.192 13.2257 153.192ZM13.2257 150.672C13.5457 150.672 13.7697 150.54 13.8977 150.276C14.0257 150.004 14.0897 149.704 14.0897 149.376V138.984C14.0897 138.656 14.0217 138.36 13.8857 138.096C13.7497 137.824 13.5297 137.688 13.2257 137.688C12.9297 137.688 12.7097 137.824 12.5657 138.096C12.4297 138.36 12.3617 138.656 12.3617 138.984V149.376C12.3617 149.704 12.4297 150.004 12.5657 150.276C12.7017 150.54 12.9217 150.672 13.2257 150.672Z" fill="currentColor"/>
<path d="M22.1944 153V135.36H24.7864C25.7704 135.36 26.5904 135.576 27.2464 136.008C27.9104 136.44 28.4064 137.052 28.7344 137.844C29.0624 138.636 29.2264 139.568 29.2264 140.64C29.2264 141.712 29.0544 142.636 28.7104 143.412C28.3664 144.188 27.8624 144.796 27.1984 145.236C26.5424 145.668 25.7384 145.904 24.7864 145.944V153H22.1944ZM24.7864 143.304C25.2424 143.304 25.6024 143.216 25.8664 143.04C26.1304 142.856 26.3184 142.568 26.4304 142.176C26.5504 141.784 26.6104 141.28 26.6104 140.664C26.6104 140.04 26.5504 139.532 26.4304 139.14C26.3184 138.748 26.1264 138.46 25.8544 138.276C25.5904 138.092 25.2344 138 24.7864 138V143.304Z" fill="currentColor"/>
<path d="M30.6319 153V135.36H33.2239C34.7759 135.36 35.9199 135.792 36.6559 136.656C37.3919 137.512 37.7599 138.776 37.7599 140.448C37.7599 141.44 37.5839 142.3 37.2319 143.028C36.8879 143.748 36.4679 144.276 35.9719 144.612L37.7359 153H35.1439L33.6799 145.56H33.2239V153H30.6319ZM33.2239 143.16C33.7039 143.16 34.0839 143.056 34.3639 142.848C34.6439 142.632 34.8439 142.328 34.9639 141.936C35.0839 141.544 35.1439 141.08 35.1439 140.544C35.1439 139.704 35.0039 139.06 34.7239 138.612C34.4519 138.156 33.9519 137.928 33.2239 137.928V143.16Z" fill="currentColor"/>
<path d="M42.546 153.192C41.826 153.192 41.206 153.024 40.686 152.688C40.174 152.352 39.778 151.896 39.498 151.32C39.226 150.744 39.09 150.096 39.09 149.376V138.984C39.09 138.256 39.226 137.608 39.498 137.04C39.778 136.464 40.174 136.008 40.686 135.672C41.206 135.336 41.826 135.168 42.546 135.168C43.266 135.168 43.882 135.336 44.394 135.672C44.914 136.008 45.31 136.464 45.582 137.04C45.862 137.616 46.002 138.264 46.002 138.984V149.376C46.002 150.096 45.862 150.744 45.582 151.32C45.31 151.896 44.914 152.352 44.394 152.688C43.882 153.024 43.266 153.192 42.546 153.192ZM42.546 150.672C42.866 150.672 43.09 150.54 43.218 150.276C43.346 150.004 43.41 149.704 43.41 149.376V138.984C43.41 138.656 43.342 138.36 43.206 138.096C43.07 137.824 42.85 137.688 42.546 137.688C42.25 137.688 42.03 137.824 41.886 138.096C41.75 138.36 41.682 138.656 41.682 138.984V149.376C41.682 149.704 41.75 150.004 41.886 150.276C42.022 150.54 42.242 150.672 42.546 150.672Z" fill="currentColor"/>
<path d="M50.7395 153.192C50.0275 153.192 49.4475 153.024 48.9995 152.688C48.5515 152.352 48.2195 151.896 48.0035 151.32C47.7955 150.744 47.6915 150.096 47.6915 149.376V138.984C47.6915 138.272 47.8315 137.628 48.1115 137.052C48.3915 136.476 48.7915 136.02 49.3115 135.684C49.8315 135.34 50.4435 135.168 51.1475 135.168C51.6835 135.168 52.1635 135.268 52.5875 135.468C53.0195 135.66 53.3835 135.932 53.6795 136.284C53.9835 136.636 54.2115 137.044 54.3635 137.508C54.5235 137.964 54.6035 138.456 54.6035 138.984V141.696H52.0115V138.984C52.0115 138.632 51.9475 138.328 51.8195 138.072C51.6915 137.816 51.4675 137.688 51.1475 137.688C50.8355 137.688 50.6115 137.824 50.4755 138.096C50.3475 138.36 50.2835 138.656 50.2835 138.984V149.592C50.2835 149.936 50.3515 150.24 50.4875 150.504C50.6235 150.76 50.8435 150.888 51.1475 150.888C51.4675 150.888 51.6915 150.76 51.8195 150.504C51.9475 150.24 52.0115 149.936 52.0115 149.592V146.64H50.9795V144.216H54.6035V153H53.0675L52.7555 152.04C52.5315 152.4 52.2435 152.684 51.8915 152.892C51.5475 153.092 51.1635 153.192 50.7395 153.192Z" fill="currentColor"/>
<path d="M56.5303 153V135.36H59.1223C60.6743 135.36 61.8183 135.792 62.5543 136.656C63.2903 137.512 63.6583 138.776 63.6583 140.448C63.6583 141.44 63.4823 142.3 63.1303 143.028C62.7863 143.748 62.3663 144.276 61.8703 144.612L63.6343 153H61.0423L59.5783 145.56H59.1223V153H56.5303ZM59.1223 143.16C59.6023 143.16 59.9823 143.056 60.2623 142.848C60.5423 142.632 60.7423 142.328 60.8623 141.936C60.9823 141.544 61.0423 141.08 61.0423 140.544C61.0423 139.704 60.9023 139.06 60.6223 138.612C60.3503 138.156 59.8503 137.928 59.1223 137.928V143.16Z" fill="currentColor"/>
<path d="M64.5684 153L67.2324 135.36H70.4004L73.0644 153H70.5444L70.0644 149.4H67.5684L67.0884 153H64.5684ZM67.9284 146.664H69.7044L68.9604 140.736L68.8884 139.8H68.7444L68.6724 140.736L67.9284 146.664Z" fill="currentColor"/>
<path d="M74.4365 153V135.36H77.7245L79.1405 144.504L79.2605 145.44H79.3085L79.4285 144.504L80.8445 135.36H84.1325V153H81.7325V141.168H81.5885L81.4925 141.912L79.9565 153H78.6125L77.0765 141.912L76.9805 141.168H76.8365V153H74.4365Z" fill="currentColor"/>
<path d="M85.5215 153L88.1855 135.36H91.3535L94.0175 153H91.4975L91.0175 149.4H88.5215L88.0415 153H85.5215ZM88.8815 146.664H90.6575L89.9135 140.736L89.8415 139.8H89.6975L89.6255 140.736L88.8815 146.664Z" fill="currentColor"/>
<path d="M95.3897 153V135.36H98.0297C98.8617 135.36 99.5657 135.496 100.142 135.768C100.718 136.04 101.182 136.504 101.534 137.16C101.886 137.816 102.138 138.716 102.29 139.86C102.45 141.004 102.53 142.448 102.53 144.192C102.53 145.944 102.45 147.392 102.29 148.536C102.138 149.672 101.886 150.568 101.534 151.224C101.182 151.872 100.718 152.332 100.142 152.604C99.5657 152.868 98.8617 153 98.0297 153H95.3897ZM97.9817 150.408C98.6217 150.408 99.0737 150.156 99.3377 149.652C99.6017 149.148 99.7617 148.428 99.8177 147.492C99.8737 146.556 99.9017 145.444 99.9017 144.156C99.9017 142.852 99.8737 141.74 99.8177 140.82C99.7617 139.892 99.5977 139.184 99.3257 138.696C99.0617 138.2 98.6137 137.952 97.9817 137.952V150.408Z" fill="currentColor"/>
<path d="M107.655 153.192C106.935 153.192 106.315 153.024 105.795 152.688C105.283 152.352 104.887 151.896 104.607 151.32C104.335 150.744 104.199 150.096 104.199 149.376V138.984C104.199 138.256 104.335 137.608 104.607 137.04C104.887 136.464 105.283 136.008 105.795 135.672C106.315 135.336 106.935 135.168 107.655 135.168C108.375 135.168 108.991 135.336 109.503 135.672C110.023 136.008 110.419 136.464 110.691 137.04C110.971 137.616 111.111 138.264 111.111 138.984V149.376C111.111 150.096 110.971 150.744 110.691 151.32C110.419 151.896 110.023 152.352 109.503 152.688C108.991 153.024 108.375 153.192 107.655 153.192ZM107.655 150.672C107.975 150.672 108.199 150.54 108.327 150.276C108.455 150.004 108.519 149.704 108.519 149.376V138.984C108.519 138.656 108.451 138.36 108.315 138.096C108.179 137.824 107.959 137.688 107.655 137.688C107.359 137.688 107.139 137.824 106.995 138.096C106.859 138.36 106.791 138.656 106.791 138.984V149.376C106.791 149.704 106.859 150.004 106.995 150.276C107.131 150.54 107.351 150.672 107.655 150.672Z" fill="currentColor"/>
<path d="M112.921 153V135.36H115.513C117.065 135.36 118.209 135.792 118.945 136.656C119.681 137.512 120.049 138.776 120.049 140.448C120.049 141.44 119.873 142.3 119.521 143.028C119.177 143.748 118.757 144.276 118.261 144.612L120.025 153H117.433L115.969 145.56H115.513V153H112.921ZM115.513 143.16C115.993 143.16 116.373 143.056 116.653 142.848C116.933 142.632 117.133 142.328 117.253 141.936C117.373 141.544 117.433 141.08 117.433 140.544C117.433 139.704 117.293 139.06 117.013 138.612C116.741 138.156 116.241 137.928 115.513 137.928V143.16Z" fill="currentColor"/>
<path fill-rule="evenodd" clip-rule="evenodd" d="M63.1394 0.17897C47.5153 1.34438 33.36 11.4078 27.1815 25.742C24.8592 31.1301 24.0948 34.7153 23.8781 41.2359L23.6866 46.9958L22.7181 46.8107C20.7734 46.4396 18.4254 48.4868 18.4254 50.5539C18.4254 51.2185 18.133 51.2769 15.0386 51.2288C12.0616 51.1826 11.3935 51.3024 9.51261 52.2216C3.91625 54.956 1.18151 63.6734 4.32598 68.755C5.81546 71.1614 8.81775 73.0257 13.9742 74.745C16.037 75.4325 17.7111 76.328 19.3252 77.6068C25.6156 82.5903 34.7241 87.592 41.1671 89.6011C47.5619 91.5948 50.2156 91.9616 58.2757 91.967C65.3616 91.9712 65.8432 92.0166 66.0595 92.6976C66.1868 93.0969 66.7941 94.2768 67.4095 95.3193C68.3631 96.9348 68.4556 97.3146 68.0344 97.8883C67.7622 98.2586 66.9657 99.3652 66.2636 100.347L64.9878 102.132L65.8814 103.456C67.2852 105.534 78.9164 116.778 80.8083 117.885C82.8696 119.092 86.024 119.472 89.517 118.936C91.9586 118.56 92.0179 118.572 92.957 119.609C97.7021 124.849 105.264 127.776 117.244 129.009L119.552 129.246L120.252 131.222C121.706 135.327 125.333 139.723 128.446 141.154C130.95 142.304 135.869 142.278 138.853 141.097C143.333 139.325 146.073 135.662 146.081 131.435C146.086 128.607 145.124 123.198 144.172 120.695C143.752 119.593 143.409 118.608 143.409 118.505C143.409 118.402 144.095 119.365 144.933 120.647C148.251 125.718 152.199 128.145 157.131 128.145C165.623 128.145 171.159 122.018 169.793 114.132C168.943 109.222 165.952 102.591 162.415 97.7742C160.341 94.9509 158.911 93.7069 156.682 92.7885C155.173 92.1666 149.715 90.9695 145.096 90.2473L142.387 89.824L143.656 86.6988C145.837 81.329 145.455 78.655 141.719 73.1181C140.956 71.9863 140.379 71.019 140.437 70.9682C140.495 70.9175 141.746 70.1448 143.218 69.2512C147.134 66.8731 150.042 64.577 153.967 60.7658C156.373 58.4297 158.184 57.0348 159.806 56.2687C166.554 53.0817 169.699 49.2488 169.288 44.7158C168.905 40.4996 166.02 35.9311 162.722 34.3198C160.745 33.3537 160.328 33.2888 157.439 33.4949C155.714 33.6182 153.915 33.8339 153.442 33.974C152.707 34.1919 152.582 34.0866 152.582 33.2456C152.582 32.6643 152.154 31.8661 151.535 31.2923C148.615 28.5882 143.786 31.4847 140.171 38.1096C139.241 39.8125 138.099 41.6146 137.633 42.1139C135.78 44.1008 119.641 50.936 116.803 50.936C115.945 50.936 115.89 50.8012 115.89 48.7258C115.89 47.5104 115.624 45.4918 115.3 44.2405C114.547 41.3359 111.926 36.7365 110.068 35.06C109.276 34.345 108.628 33.5968 108.628 33.3972C108.628 32.294 106.414 26.228 104.927 23.2608C100.221 13.8635 91.8703 6.4641 81.6213 2.61095C77.6673 1.12451 75.0533 0.624064 68.1131 0.0236082C67.3774 -0.0401401 65.1391 0.029715 63.1394 0.17897ZM71.563 2.46781C86.7299 4.30773 100.045 14.7415 104.862 28.5615C106.37 32.8876 106.396 32.8028 103.563 32.8105C102.25 32.8143 100.745 32.9502 100.219 33.1128C99.3281 33.3884 99.2058 33.2586 98.4092 31.1977C94.6895 21.5732 86.5912 13.179 76.3502 8.33417C70.7206 5.67087 66.6103 4.70281 59.9349 4.46805C56.8034 4.35773 54.4815 4.13595 54.775 3.97486C55.3686 3.64963 60.6779 2.56285 62.7621 2.33992C65.5244 2.04485 68.4242 2.08722 71.563 2.46781ZM68.2954 7.5837C81.1489 10.8887 92.785 21.209 96.8005 32.8658L97.4854 34.8538L96.5723 35.4513C95.3714 36.2372 95.3848 36.243 95.0977 34.808C94.6918 32.7773 91.6337 26.8769 89.6076 24.2151C84.3549 17.3147 77.3176 12.4958 68.6039 9.83283C65.4953 8.88271 64.737 8.80637 58.3667 8.80102C52.4798 8.79606 51.0595 8.91402 48.5251 9.6183C44.8211 10.6478 40.7077 12.6759 37.7272 14.9419C35.7523 16.4436 35.5933 16.5115 36.5805 15.4297C43.2777 8.09331 48.2117 6.14688 59.3222 6.45875C63.2598 6.56907 65.3856 6.83552 68.2954 7.5837ZM64.7588 14.8388C67.2187 15.5305 70.5929 16.9066 70.3651 17.1249C70.2826 17.2036 68.2477 17.4742 65.8428 17.7266C56.9594 18.6576 49.1603 21.1976 43.4604 25.0156C38.7825 28.1492 36.3589 31.4817 34.8078 36.914C34.0033 39.7327 33.9104 40.8359 33.9077 47.6081L33.9051 55.159L32.8505 53.9066C29.6002 50.045 27.868 43.7095 28.6951 38.7078C29.7416 32.3791 32.2856 26.475 35.7997 22.2202C39.1074 18.2152 43.1259 15.9737 49.7669 14.4296C52.6205 13.7661 61.8391 14.0177 64.7588 14.8388ZM85.6926 31.9451C88.7033 33.4762 90.007 37.5569 88.4652 40.6217C87.575 42.3918 85.5791 43.6832 83.7342 43.6832C82.5294 43.6832 81.9676 43.3942 80.579 42.0608C77.1146 38.7333 77.4338 34.1812 81.2995 31.7966C82.7947 30.874 83.6432 30.9026 85.6926 31.9451ZM149.83 32.6895C150.629 33.4876 150.332 34.8504 148.883 37.0297L147.477 39.1441L148.214 41.1275C148.736 42.53 148.943 44.0325 148.923 46.2598C148.907 47.9917 149.032 49.4091 149.2 49.4091C149.367 49.4091 149.803 48.8506 150.169 48.1685C150.962 46.687 151.033 43.0404 150.311 40.8741C149.872 39.5575 149.898 39.2937 150.557 38.3928C152.128 36.2437 157.121 34.808 160.181 35.6249C162.774 36.3178 164.211 37.6237 165.741 40.6794C167.259 43.7084 167.537 46.3243 166.546 48.2391C165.634 50.0011 162.558 52.4224 159.125 54.0822C157.145 55.0392 155.394 56.2088 154.56 57.131C151.09 60.9666 144.616 65.779 138.297 69.2195L135.286 70.8583L133.799 70.1887C128.801 67.9373 125.262 60.8231 125.526 53.5539L125.636 50.5031L129.076 49.0609C137.505 45.5269 139.179 44.2787 141.795 39.5789C143.733 36.0968 145.96 33.5712 147.805 32.7635C149.24 32.1348 149.274 32.1337 149.83 32.6895ZM106.852 35.5703L108.054 36.2155L106.334 36.4384C104.103 36.7274 102.544 37.5767 100.983 39.3517C95.9829 45.0398 96.0238 55.2728 101.067 60.1783C103.015 62.0732 102.932 62.2775 100.495 61.6014C94.8405 60.0329 91.6334 50.9077 94.0627 43.3015C94.873 40.7656 96.9626 37.6408 98.7123 36.3491C101.217 34.4996 104.306 34.2041 106.852 35.5703ZM110.785 40.3522C115.445 45.2777 114.015 56.5481 108.36 59.4664C105.43 60.9781 102.665 59.7493 100.799 56.1065C97.9555 50.5554 99.7126 42.0467 104.288 39.2113C106.591 37.7836 108.707 38.1554 110.785 40.3522ZM87.5766 47.544C89.1276 50.0908 86.5729 52.6045 84.674 50.4C83.5824 49.1327 83.5438 48.1219 84.5483 47.1187C85.6563 46.0121 86.7361 46.1636 87.5766 47.544ZM23.8364 49.5045C24.1598 49.7671 24.7365 51.1841 25.118 52.6538C28.0671 64.0189 35.0307 72.8685 46.171 79.4105C46.8357 79.8006 46.7845 79.9564 45.3902 81.7825C44.5692 82.8575 42.9746 84.4199 41.8463 85.2547C39.8129 86.7591 39.7823 86.7679 38.2845 86.2399C33.8546 84.6791 25.2017 79.5506 20.1454 75.4894C18.5294 74.1915 17.0055 73.38 14.9855 72.7417C7.41846 70.3498 4.60843 67.4853 5.17182 62.7374C5.44854 60.4009 7.00797 56.8638 8.40343 55.4072C9.84781 53.8993 12.9621 53.0702 16.0106 53.3821C19.0832 53.6966 20.3269 54.17 21.3165 55.4018C21.9976 56.2496 22.0664 56.673 21.8183 58.498C21.4793 60.9922 21.855 63.3642 22.8602 65.0809C23.6751 66.4711 24.4281 66.612 24.1984 65.3305C24.1154 64.8667 24.0294 62.4156 24.0073 59.8837L23.9675 55.28L22.3431 53.4359C20.7592 51.638 20.4764 50.8654 20.9507 49.6312C21.229 48.9067 23.0036 48.8289 23.8364 49.5045ZM123.534 54.3528C123.534 58.1178 124.07 60.7219 125.495 63.8796C126.781 66.7291 128.758 69.268 130.9 70.8174L132.417 71.9149L131.32 72.3337C128.942 73.2418 121.439 74.9947 117.931 75.4619C113.862 76.004 112.532 76.8869 115.762 76.9018C116.918 76.9071 117.929 77.1575 118.463 77.5698C119.285 78.205 119.296 78.2966 118.766 80.0476C117.808 83.2182 115.139 87.8382 112.782 90.4069C110.745 92.6274 105.805 96.3752 104.945 96.3526C104.763 96.3481 103.714 94.98 102.614 93.3122C99.0586 87.9211 98.2923 87.7917 88.706 90.9642C78.9305 94.1989 70.7103 96.4359 70.2577 95.9839C70.0559 95.7823 68.8344 93.8527 67.5425 91.6952C65.3134 87.9722 64.3648 87.103 64.6151 89.0132C64.7225 89.8301 64.591 89.8759 61.9297 89.9496C57.6734 90.0679 52.8903 89.8648 50.3402 89.4575C48.2174 89.1189 42.8175 87.9508 42.6016 87.784C42.5496 87.744 43.6763 86.5224 45.105 85.07C46.5338 83.6171 47.9525 82.036 48.2572 81.5562L48.8114 80.6839L51.1754 81.6134C68.7763 88.5341 89.6806 82.4609 101.056 67.1212C102.426 65.2748 103.711 63.9147 104.088 63.9147C105.176 63.9147 109.869 61.2647 111.416 59.7772C112.214 59.0095 113.38 57.357 114.006 56.1046L115.146 53.8276L119.053 52.6045C121.202 51.9319 123.089 51.367 123.247 51.3494C123.405 51.3322 123.534 52.6835 123.534 54.3528ZM94.1047 62.1099C92.7945 64.6514 89.2709 69.0638 86.9566 71.0602C78.9317 77.9836 69.5411 81.121 58.4007 80.6007C54.6955 80.4278 53.3016 80.1938 51.3645 79.4204C48.7307 78.3688 43.8869 75.7677 44.1231 75.5318C44.2042 75.4508 45.1907 75.7337 46.3155 76.1608C51.0301 77.9496 54.6699 78.5692 60.4689 78.5692C64.8914 78.5692 66.6909 78.4004 69.3771 77.7332C79.8623 75.1294 87.6874 69.2963 92.3737 60.5898L93.4443 58.6007L94.1904 59.5481C94.9326 60.491 94.9322 60.504 94.1047 62.1099ZM99.7848 63.7677C100.681 64.1334 100.668 64.1617 98.4215 66.986C96.054 69.9612 92.5319 73.2212 89.394 75.3409C84.9225 78.3619 77.1689 81.2466 71.553 81.9787C70.3212 82.1394 70.9602 81.8283 73.8031 80.8832C83.3107 77.7221 90.9171 71.863 95.2736 64.3449L96.588 62.0763L97.7346 62.7378C98.3653 63.1016 99.2879 63.565 99.7848 63.7677ZM137.217 74.8893C138.216 77.1018 138.282 77.5091 137.906 79.1013C137.181 82.1673 133.671 81.8497 129.862 78.3737C128.694 77.3075 127.738 76.5998 127.738 76.8014C127.738 77.5729 130.984 80.8026 132.801 81.8386C134.504 82.8101 134.615 82.9506 133.868 83.1873C132.128 83.7389 128.394 81.8512 127.982 80.2125C127.854 79.7006 127.043 78.6451 126.18 77.8668C125.318 77.0888 124.671 76.4143 124.742 76.3677C124.813 76.3212 126.162 75.9711 127.738 75.5898C129.315 75.2084 131.637 74.5068 132.898 74.0304C136.15 72.8024 136.287 72.8295 137.217 74.8893ZM140.663 75.4902C141.503 76.8182 142.369 78.5558 142.59 79.3525C143.109 81.2302 142.594 83.974 141.14 87.0767L140.034 89.4384L138.053 88.9166C135.59 88.2677 130.924 86.0628 129.649 84.9459L128.694 84.1084L130.032 84.7615C135.752 87.5546 142.549 80.4018 139.621 74.6702C138.433 72.344 138.912 72.7207 140.663 75.4902ZM125.083 79.6449C126.425 80.9851 126.479 81.8276 125.471 85.7624C123.521 93.3752 118.288 100.091 111.908 103.166C108.813 104.658 106.623 104.973 105.195 104.13C104.107 103.488 103.362 102.416 103.247 101.324C103.078 99.7305 103.377 99.3893 106.105 98.0605C112.74 94.8296 118.15 88.4101 120.644 80.8084C121.63 77.8019 122.904 77.4679 125.083 79.6449ZM129.765 87.5707C131.676 88.8586 136.403 90.8272 138.522 91.2173C140.308 91.5463 140.534 91.8315 141.241 94.6437C142.163 98.317 142.335 100.578 141.899 103.305C141.149 107.991 139.088 111.259 135.403 113.603C134.076 114.448 133.252 114.684 131.637 114.684C129.516 114.684 126.113 113.959 123.264 112.9C121.667 112.307 121.648 112.31 120.206 113.444C118.463 114.817 114.78 116.706 112.545 117.374C111.652 117.64 110.921 118.089 110.921 118.371C110.921 118.653 111.054 118.883 111.215 118.883C112.327 118.883 117.64 117.085 119.609 116.042L121.991 114.78L124.099 115.4C125.259 115.741 126.208 116.152 126.209 116.314C126.209 116.476 125.793 117.266 125.285 118.071C123.563 120.795 119.556 123.367 115.133 124.585C111.704 125.53 108.732 125.587 105.926 124.763C103.584 124.075 98.6454 121.583 97.0799 120.3L96.0426 119.449L98.2265 119.453C99.4274 119.454 100.496 119.299 100.601 119.107C100.706 118.915 99.9427 118.474 98.9038 118.127L97.0157 117.496L101.658 115.907C105.529 114.581 106.874 113.898 109.759 111.791C113.406 109.128 114.046 108.148 113.263 106.431C113.026 105.912 112.832 105.422 112.832 105.342C112.832 105.262 113.825 104.594 115.038 103.858C117.68 102.255 121.74 98.1513 123.68 95.1216C125.001 93.0587 127.356 87.7604 127.356 86.85C127.356 86.18 127.977 86.3659 129.765 87.5707ZM98.973 91.5146C99.4439 91.9403 100.545 93.3851 101.419 94.7257C102.999 97.147 103.004 97.1673 102.21 97.7227C101.693 98.0842 101.318 98.8984 101.149 100.027L100.887 101.773L99.1316 99.7351C98.1661 98.6144 96.807 97.1459 96.111 96.4717C94.8631 95.2636 94.8531 95.2269 95.4104 93.8951C96.1167 92.2071 95.9153 92.1956 94.4675 93.8428C92.3351 96.2683 79.9139 99.9264 72.0614 100.442L68.3547 100.685L69.2085 99.487C69.7815 98.6831 70.5906 98.1517 71.6677 97.8719C76.3112 96.6641 85.7924 93.855 90.7848 92.2075C93.974 91.1551 96.8123 90.4263 97.2825 90.5397C97.7411 90.6504 98.5021 91.089 98.973 91.5146ZM147.996 92.9137C155.864 94.2512 157.666 95.0624 160.347 98.4743C165.407 104.913 168.901 115.181 167.488 119.457C166.263 123.165 162.009 125.875 157.36 125.909C153.73 125.935 152.143 125.293 149.566 122.756C147.691 120.91 144.577 116.359 144.993 116.071C145.067 116.019 146.279 115.423 147.684 114.746C150.653 113.316 153.03 110.895 154.593 107.707C156.259 104.307 155.785 102.953 153.995 106C151.354 110.494 147.777 112.98 142.333 114.106C137.841 115.035 137.694 114.973 139.571 112.94C141.723 110.608 143.413 106.889 143.921 103.365C144.256 101.044 144.218 99.8378 143.722 97.0001C143.386 95.0742 142.987 93.1977 142.837 92.8305C142.491 91.9884 142.558 91.9895 147.996 92.9137ZM96.8047 99.8924C98.1 101.415 100.86 104.398 102.938 106.523C105.016 108.648 106.717 110.64 106.717 110.949C106.717 111.979 105.376 112.746 101.164 114.124L96.9908 115.489L94.3841 112.701C91.6586 109.785 91.5902 109.585 92.3856 106.859C92.6153 106.072 91.6223 104.342 88.9567 100.884L87.5876 99.1072L89.9856 98.1517C93.7967 96.6332 94.0971 96.7099 96.8047 99.8924ZM88.7916 102.902C90.742 105.461 91.0826 106.129 90.8708 106.983C90.1267 109.983 90.0865 109.856 92.741 112.896L95.272 115.794L93.828 116.169C93.0334 116.375 91.5237 116.652 90.4726 116.784C89.4215 116.916 88.0455 117.115 87.4149 117.226L86.2682 117.429L87.5207 116.259C88.5577 115.292 88.7297 114.908 88.5191 114.028C87.6664 110.469 83.6623 106.591 81.4527 107.185C79.9159 107.598 76.904 110.038 76.904 110.871C76.904 111.288 76.7553 111.63 76.573 111.63C76.3911 111.63 74.2843 109.612 71.8917 107.145L67.5406 102.66L72.6198 102.161C75.4134 101.887 79.5413 101.193 81.7925 100.619C84.0441 100.045 86.0148 99.6347 86.1727 99.7084C86.3302 99.7817 87.5089 101.219 88.7916 102.902ZM111.685 107.433C111.685 107.802 111.095 108.554 110.373 109.104C108.951 110.188 108.245 110.367 108.245 109.645C108.245 109.392 107.696 108.619 107.024 107.927L105.802 106.668L107.311 106.63C108.14 106.609 109.249 106.465 109.774 106.309C110.874 105.983 111.685 106.461 111.685 107.433ZM83.3351 109.342C83.8244 109.749 84.1126 110.263 83.9757 110.484C83.8389 110.705 83.9279 110.839 84.1733 110.781C84.8231 110.628 85.4767 111.798 85.177 112.578C84.9523 113.163 84.8139 113.109 84.0789 112.152C82.9097 110.631 81.8483 109.722 81.241 109.722C80.5927 109.722 80.5664 109.086 81.2039 108.829C82.041 108.492 82.4251 108.584 83.3351 109.342ZM80.5205 111.344C81.9259 112.571 82.3911 114.443 81.4925 115.255C80.8389 115.846 80.7307 115.783 79.6158 114.165C77.6398 111.296 78.2582 109.369 80.5205 111.344ZM141.196 119.148C141.765 120.367 142.506 122.395 142.841 123.655C143.689 126.842 144.01 132.524 143.44 134.25C142.427 137.315 137.817 139.885 133.361 139.87C130.403 139.86 128.462 139.014 126.289 136.787C124.673 135.132 121.452 129.393 121.812 128.812C121.913 128.647 122.588 128.402 123.312 128.266C125.133 127.926 129.689 125.596 130.758 124.459C132.159 122.969 131.53 122.622 129.681 123.865C128.752 124.489 126.86 125.363 125.476 125.808C122.749 126.683 115.991 127.281 116.406 126.609C116.539 126.396 117.122 126.105 117.702 125.964C120.773 125.218 126.395 120.703 127.917 117.762L128.423 116.784L134.292 116.857L140.16 116.931L141.196 119.148Z" fill="currentColor"/>
</svg>
