<?xml version="1.0" encoding="utf-8"?>
<!-- Generator: Adobe Illustrator 16.0.0, SVG Export Plug-In . SVG Version: 6.00 Build 0)  -->
<!DOCTYPE svg PUBLIC "-//W3C//DTD SVG 1.1//EN" "http://www.w3.org/Graphics/SVG/1.1/DTD/svg11.dtd">
<svg version="1.1" id="Layer_1" xmlns="http://www.w3.org/2000/svg" xmlns:xlink="http://www.w3.org/1999/xlink" x="0px" y="0px"
	 width="250px" height="250px" viewBox="0 0 250 250" enable-background="new 0 0 250 250" xml:space="preserve">
<g>
	<path fill-rule="evenodd" clip-rule="evenodd" d="M124.332,172.996c0.025-26.913,21.94-48.822,48.862-48.7
		c28.535,0.13,49.537,24.05,48.582,50.454c-0.899,24.932-21.443,47.015-48.822,46.988
		C146.137,221.711,124.309,199.82,124.332,172.996z M173.156,133.122c-21.914-0.087-39.814,17.649-39.945,39.583
		c-0.134,22.156,17.599,40.134,39.69,40.244c21.954,0.106,40.021-17.785,40.09-39.706
		C213.059,151.108,195.288,133.212,173.156,133.122z"/>
	<path fill-rule="evenodd" clip-rule="evenodd" d="M28.228,76.96c0-26.929,21.854-48.728,48.823-48.699
		c26.822,0.03,48.639,21.883,48.637,48.719c-0.002,26.899-21.938,48.797-48.826,48.741C50.071,125.666,28.228,103.767,28.228,76.96z
		 M76.844,116.759c22.073,0.011,39.857-17.739,39.881-39.803c0.024-22.061-17.758-39.942-39.754-39.979
		c-22.08-0.035-40.038,17.888-40.028,39.95C36.954,98.942,54.791,116.748,76.844,116.759z"/>
	<path fill-rule="evenodd" clip-rule="evenodd" d="M206.151,71.75c-3.57-3.546-7.163-7.072-10.705-10.647
		c-1.901-1.919-1.952-4.649-0.22-6.424c1.831-1.876,4.484-1.796,6.543,0.199c0.271,0.263,0.527,0.54,0.792,0.811
		c5.896,6.031,11.789,12.062,17.688,18.092c1.754,1.793,1.923,4.39,0.13,6.225c-6.241,6.395-12.537,12.74-18.875,19.043
		c-1.756,1.746-4.42,1.618-6.123-0.059c-1.744-1.718-1.834-4.396-0.043-6.274c3.085-3.233,6.264-6.377,9.397-9.563
		c0.425-0.434,0.825-0.895,1.554-1.688c-1.107,0-1.826,0-2.544,0c-19.576,0-39.15,0.01-58.724-0.019
		c-1.616-0.002-3.245-0.174-4.841-0.429c-2.351-0.376-3.972-2.466-3.79-4.683c0.2-2.433,2.217-4.179,4.755-4.168
		c8.748,0.037,17.495,0.072,26.244,0.082c12.146,0.014,24.294,0.003,36.441,0.003c0.726,0,1.452,0,2.177,0
		C206.057,72.084,206.104,71.918,206.151,71.75z"/>
	<path fill-rule="evenodd" clip-rule="evenodd" d="M43.771,168.669c0.895,0,1.636,0,2.374,0c20.089,0,40.178-0.004,60.269,0.002
		c3.401,0.002,5.577,2.147,5.142,5.024c-0.363,2.395-2.123,3.798-4.817,3.8c-18.262,0.004-36.525,0.002-54.788,0.002
		c-2.685,0-5.369,0-8.434,0c0.588,0.689,0.907,1.118,1.278,1.493c3.53,3.589,7.066,7.172,10.612,10.746
		c1.735,1.753,1.782,4.55,0.075,6.29c-1.708,1.743-4.537,1.799-6.281,0.047c-6.487-6.514-12.965-13.036-19.414-19.585
		c-2.153-2.187-2.112-4.599,0.052-6.818c5.975-6.138,11.965-12.26,17.963-18.373c1.979-2.019,4.492-2.144,6.364-0.366
		c1.849,1.758,1.835,4.522-0.1,6.566c-3.374,3.568-6.784,7.101-10.175,10.652C43.853,168.189,43.861,168.271,43.771,168.669z"/>
	<path fill-rule="evenodd" clip-rule="evenodd" d="M176.378,194.231c0,1.143-0.013,2.203,0.004,3.263
		c0.015,1.1-0.504,1.621-1.604,1.61c-1.503-0.016-3.006-0.003-4.713-0.003c0-1.754,0-3.414,0-5.118
		c-4.743-0.767-9.022-2.084-11.902-6.054c-1.329-1.829-2.032-3.855-1.852-6.386c2.3,0,4.546-0.049,6.788,0.038
		c0.463,0.019,1.134,0.434,1.325,0.844c2.115,4.523,6.096,5.03,10.353,4.807c1.227-0.063,2.455-0.505,3.638-0.908
		c1.915-0.651,2.987-2.07,3.133-4.079c0.143-2.034-1.012-3.448-2.75-4.102c-2.931-1.102-5.994-1.849-8.952-2.885
		c-2.595-0.912-5.202-1.851-7.666-3.065c-6.815-3.36-6.651-13.31-1.435-17.249c2.047-1.544,4.577-2.586,7.04-3.39
		c1.397-0.456,2.045-0.814,1.874-2.31c-0.113-0.983-0.022-1.992-0.022-3.146c1.742,0,3.428-0.112,5.079,0.073
		c0.469,0.053,1.115,0.943,1.196,1.518c0.18,1.289,0.058,2.622,0.058,3.626c2.493,1.087,4.877,1.895,7.022,3.118
		c2.774,1.58,4.649,4.027,5.378,7.209c0.41,1.787-0.03,2.31-1.825,2.352c-0.944,0.02-1.895-0.068-2.831,0.017
		c-2.1,0.193-3.664-0.106-4.551-2.502c-0.396-1.071-1.943-1.953-3.161-2.439c-2.597-1.04-5.308-0.955-7.895,0.211
		c-3.346,1.511-3.889,5.688-0.725,7.513c2.508,1.446,5.459,2.142,8.244,3.077c2.676,0.897,5.406,1.628,8.086,2.512
		c3.619,1.196,6.126,3.427,6.525,7.455c0.436,4.358-0.689,8.114-4.32,10.851C183.138,192.779,179.936,193.801,176.378,194.231z"/>
	<path fill-rule="evenodd" clip-rule="evenodd" d="M73.999,54.323c0-1.068,0-2.685,0-4.438c1.741,0,3.359-0.006,4.979,0.001
		c1.199,0.005,1.833,0.715,1.635,1.808c-0.56,3.066,0.719,4.23,3.708,4.941c4.094,0.972,6.83,3.903,8.062,7.998
		c0.681,2.256,0.157,2.846-2.17,2.86c-0.944,0.006-1.896-0.075-2.831,0.018c-1.9,0.187-2.984-0.414-3.964-2.277
		c-0.705-1.339-2.553-2.325-4.104-2.915c-2.302-0.877-4.702-0.46-6.956,0.615c-1.602,0.765-2.63,1.93-2.746,3.75
		c-0.125,1.93,0.545,3.622,2.336,4.368c2.185,0.91,4.518,1.453,6.79,2.147c2.699,0.825,5.447,1.517,8.094,2.487
		c8.774,3.214,7.985,14.888,2.327,18.869c-2.854,2.008-5.975,3.167-9.582,3.619c0,1.703,0,3.365,0,5.135c-2.044,0-3.896,0-5.939,0
		c0-1.679,0-3.346,0-4.962c-9.564-2.308-13.263-5.813-13.411-12.854c2.483,0,4.969-0.063,7.444,0.056
		c0.453,0.023,1.039,0.707,1.276,1.219c1.214,2.61,3.4,3.779,6.065,4.254c2.651,0.471,5.254,0.319,7.777-0.736
		c1.865-0.781,2.929-2.108,3.038-4.149c0.105-1.969-0.958-3.34-2.625-3.979c-2.863-1.1-5.855-1.858-8.755-2.877
		c-2.652-0.932-5.336-1.847-7.861-3.067c-7.042-3.406-6.783-13.729-1.187-17.593C67.87,56.912,70.812,55.884,73.999,54.323z"/>
</g>
</svg>
