<?xml version="1.0" encoding="utf-8"?>
<!-- Generator: Adobe Illustrator 16.0.0, SVG Export Plug-In . SVG Version: 6.00 Build 0)  -->
<!DOCTYPE svg PUBLIC "-//W3C//DTD SVG 1.1//EN" "http://www.w3.org/Graphics/SVG/1.1/DTD/svg11.dtd">
<svg version="1.1" id="Layer_1" xmlns="http://www.w3.org/2000/svg" xmlns:xlink="http://www.w3.org/1999/xlink" x="0px" y="0px"
	 width="250px" height="250px" viewBox="0 0 250 250" enable-background="new 0 0 250 250" xml:space="preserve">
<g>
	<path d="M177.338,184.149c-0.537-1.538-2.424-3.111-3.959-3.302l-0.212-0.014c-1.618,0-3.21,2.256-3.641,3.046
		c-0.517,0.952-0.465,2.104-0.419,3.119c0.013,0.282,0.026,0.562,0.025,0.831c-0.009,5.117-0.009,10.235-0.008,15.353l-0.002,10.594
		c-0.005,5.522-0.005,5.372-5.374,5.372L92.135,219h-50.64c-5.757,0-5.757,0.148-5.757-5.449l-0.005-97.611
		c-0.001-23.259-0.001-46.479,0.001-69.738c0.002-5.433,0.104-5.518,5.484-5.519l61.221,0.007l61.427,0.008
		c5.257,0,5.257,0.003,5.259,5.293c0.003,7.663,0.003,15.328,0.002,22.99c0,10.813-0.001,21.86,0.009,32.673
		c0.002,2.286,0.004,6.345,4.389,6.345c0.001,0,0.002,0,0.002,0c4.167-1,4.169-4.252,4.17-6.154l0.015-12.629
		c0.02-14.712,0.039-29.982-0.05-44.945c-0.047-7.926-4.201-11.974-12.349-11.976c-41.93-0.015-83.861-0.031-125.793-0.013
		c-8.079,0.004-12.178,4.051-12.181,12.041c-0.016,57.132-0.018,114.26,0.001,171.389c0.003,7.981,4.094,12.027,12.157,12.029
		c20.966,0.004,41.932,0.005,62.896,0.005c20.966,0,41.932-0.003,62.896-0.007c8.256-0.002,12.311-4.01,12.396-12.253
		c0.069-6.739,0.049-13.587,0.029-20.209l-0.015-5.356c-0.001-0.438,0.015-0.883,0.03-1.329
		C177.781,187.107,177.835,185.572,177.338,184.149z"/>
	<path d="M221.181,87.46c2.903-6.176,1.483-11.909-3.706-14.961c-1.763-1.038-3.573-1.564-5.38-1.564
		c-3.537,0-6.796,1.976-9.425,5.712c-0.374,0.53-0.985,0.976-1.634,1.448c-0.202,0.147-0.404,0.295-0.6,0.445
		c-0.443,0.34-0.941,0.65-1.469,0.979c-1.13,0.704-2.298,1.431-3.054,2.554c-1.885,2.798-3.583,5.767-5.226,8.638
		c-0.332,0.581-0.664,1.161-0.998,1.741l-0.126-0.278l-0.746,0.111c-0.618,0.092-1.378,0.117-2.112,0.14
		c-1.906,0.061-3.876,0.124-4.812,1.355c-0.818,1.077-1.14,2.063-0.983,3.012c0.243,1.47,1.575,2.369,2.751,3.162
		c0.411,0.278,0.833,0.562,1.185,0.855c-0.843,1.462-1.692,2.922-2.542,4.382c-2.141,3.676-4.354,7.478-6.429,11.281
		c-2.265,4.148-4.737,8.288-7.13,12.291c-5.738,9.604-11.672,19.534-15.305,30.534c-1.307,3.955-3.272,7.864-5.007,11.313
		c-1.935,3.845-2.196,7.22-0.82,10.622c0.219,0.54,0.229,1.296,0.126,1.477c-1.367,1.858-2.839,3.636-4.397,5.517
		c-0.256,0.311-0.515,0.622-0.774,0.937c-2.546-4.844-5.012-7.982-8.324-7.982c-1.75,0-3.636,0.889-5.975,2.846
		c-0.039-0.494-0.078-0.984-0.116-1.471c-0.206-2.627-0.401-5.107-0.676-7.617c-0.474-4.331-2.752-6.872-6.588-7.351
		c-3.937-0.496-6.811,1.448-8.194,5.507c-2.021,5.924-4.023,11.962-5.961,17.802l-1.385,4.169c-1.128,3.396-0.33,5.583,2.373,6.499
		c0.554,0.188,1.084,0.283,1.577,0.282c2.787,0,3.729-2.873,4.131-4.1c2.116-6.45,4.025-12.198,5.825-17.545
		c0.008,0.112,0.015,0.225,0.021,0.336c0.182,2.808,0.353,5.46,1.008,7.972c0.594,2.277,2.659,5.131,4.788,5.751
		c0.409,0.119,0.856,0.18,1.33,0.18c1.586,0,3.254-0.652,4.866-1.283c0.401-0.157,0.797-0.313,1.18-0.451
		c0.675-0.245,1.146-0.775,1.567-1.355c0.277,0.628,0.539,1.222,0.798,1.817c1.616,3.717,4.251,5.848,7.229,5.848
		c2.436,0,4.818-1.377,6.89-3.981c0.534-0.671,1.056-1.353,1.577-2.035c1.121-1.467,2.28-2.982,3.536-4.333
		c0.61-0.656,1.722-1.197,2.477-1.205c4.667-0.048,8.103-2.041,10.505-6.094l0.376-0.638c1.169-1.982,2.377-4.033,3.88-5.693
		c8.773-9.687,15.364-20.733,20.654-30.262c3.707-6.679,7.609-13.4,11.384-19.9c1.482-2.553,2.965-5.106,4.439-7.663
		c0.42-0.729,0.892-1.453,1.349-2.152c0.049-0.075,0.098-0.15,0.146-0.226c1.682,0.853,2.748,1.546,2.956,2.221
		c0.223,0.726-0.38,1.997-1.425,3.813c-1.025,1.781-2.063,3.555-3.099,5.33c-2.752,4.709-5.597,9.578-8.168,14.499
		c-0.625,1.199-0.157,2.688,0.296,4.126c0.181,0.571,0.351,1.11,0.441,1.593l0.228,1.204l1.134-0.464
		c0.428-0.176,0.937-0.317,1.476-0.468c1.363-0.38,2.773-0.772,3.458-1.882c4.291-6.949,8.604-14.392,12.817-22.123
		c2.638-4.839,1.225-10.369-3.518-13.761c-0.663-0.473-1.348-0.917-2.007-1.343c-0.127-0.082-0.253-0.163-0.377-0.244
		c0.001-0.034,0.003-0.063,0.008-0.087c0.709-2.007,1.968-3.814,3.3-5.727c2.606-3.741,5.3-7.607,3.823-13.153
		c0.048-0.073,0.11-0.162,0.158-0.229C220.901,87.938,221.062,87.711,221.181,87.46z M160.654,176.05
		c-0.146,0.136-0.29,0.27-0.432,0.401c-0.997,0.93-1.864,1.738-2.812,2.278c-0.361-0.06-1.119-0.438-1.407-0.7
		c-0.07-1.114,0.105-2.288,0.324-3.753c0.032-0.218,0.065-0.44,0.099-0.668L160.654,176.05z M172.141,160.258l-7.012,8.475
		l-4.869-2.838l3.836-10.25L172.141,160.258z M201.782,110.373l-24.737,42.89l-9.415-5.404l24.765-42.901L201.782,110.373z
		 M209.379,81.932c1.064-0.919,1.99-1.72,2.973-2.244c0.367,0.084,1.108,0.503,1.38,0.779c0.025,1.12-0.209,2.312-0.478,3.68
		c-0.04,0.2-0.08,0.403-0.119,0.61l-4.263-2.388C209.045,82.22,209.214,82.075,209.379,81.932z M211.439,93.625l-5.409,9.415
		l-9.364-5.465l5.411-9.344L211.439,93.625z"/>
	<path d="M92.96,60c16.071,0,32.146,0.049,48.224,0.043c0.308,0,0.628,0.042,0.95,0.058c0.361,0.019,0.725,0.049,1.079,0.049
		c0.664,0,1.524-0.046,2.295-0.457c1.23-0.656,2.903-2.4,2.845-3.975c-0.059-1.545-1.912-3.031-3.145-3.653
		c-0.507-0.256-1.104-0.375-1.879-0.375c-0.359,0-0.731,0.026-1.104,0.052c-0.321,0.022-0.642,0.154-0.955,0.154
		C128.048,51.893,114.828,52,101.605,52H79.951c-1.808,0-3.615,0.017-5.423,0.022C70.313,52.035,66.098,52,61.886,52h-0.17
		c-1.852,0-3.191,0.335-4.096,1.269c-0.9,0.93-1.311,2.21-1.253,4.036c0.06,1.896,0.045,3.808,0.029,5.684
		c-0.007,0.968-0.015,1.921-0.013,2.89c0.013,6.35,0.725,7.07,6.923,7.072h32.528l45.691-0.005c0.276,0,0.566,0.022,0.856,0.045
		c0.345,0.027,0.69,0.052,1.022,0.052c0.69,0,1.225-0.111,1.683-0.349c0.56-0.291,3.347-1.831,3.237-3.587
		c-0.102-1.638-1.521-3.331-2.795-4.211c-0.644-0.444-1.424-0.495-1.954-0.495c-0.363,0-0.747,0.029-1.128,0.058
		c-0.323,0.025-0.646,0.299-0.946,0.299C125.267,64.752,109.034,65,92.799,65H65v-5H92.96z"/>
	<path d="M42.031,176.676c-4.17,11.33-0.821,23.765,8.529,31.68c4.929,4.171,11.359,6.469,18.107,6.469
		c5.127,0,10.071-1.348,14.298-3.897c8.752-5.281,13.464-13.148,14.004-23.384c0.065-1.243-0.076-2.958-1.127-4.066
		c-0.746-0.788-1.777-1.119-3.104-0.909c-1.415,0.224-2.424,1.696-3.313,2.995c-0.207,0.303-0.409,0.598-0.609,0.866
		c-0.415,0.557-0.385,1.23-0.36,1.772c0.009,0.218,0.02,0.442-0.004,0.584c-1.405,8.461-5.94,14.002-13.478,16.468
		c-7.845,2.563-14.938,0.85-20.619-5.002c-5.499-5.662-7.044-12.73-4.47-20.442c2.697-8.083,9.679-13.104,18.221-13.104
		c3.938,0,7.958,1.127,11.627,3.258c1.08,0.628,2.341,1.298,3.621,1.298c1.271,0,2.347-0.64,3.197-1.902
		c0.99-1.471,0.929-2.705,0.702-3.481c-0.371-1.275-1.459-2.362-3.064-3.063c-3.453-1.505-7.033-2.846-10.495-4.142
		c-1.426-0.533-2.852-1.067-4.272-1.613l-0.937-0.36l-0.534,1.401C56.229,158.376,46.104,165.605,42.031,176.676z"/>
	<path d="M133.489,77.43c-0.299,0-0.604,0.012-0.905,0.024c-0.271,0.011-0.54,0.022-0.815,0.022c0,0,0,0-0.001,0
		c-4.574-0.006-9.147-0.008-13.722-0.008l-32.745,0.009c-4.558,0-9.116-0.002-13.699-0.009c-2.054,0-3.497,0.447-4.412,1.368
		c-0.711,0.715-1.067,1.678-1.061,2.86c0.015,2.717,2.005,4.303,5.461,4.351c0.386,0.006,0.773,0.006,1.16,0.006l23.576,0.001
		c11.807,0,23.614-0.003,35.443-0.019l1.088,0.009c1.127,0,2.298-0.081,3.226-0.662c1.216-0.762,2.495-2.485,2.53-4.049
		c0.035-1.561-1.959-3.031-2.93-3.498C134.938,77.477,134.12,77.43,133.489,77.43z"/>
	<path d="M134.993,108.357c4.753,0,11.028-0.015,17.424-0.13c1.725-0.032,5.163-1.354,5.522-3.157
		c0.286-1.449,0.073-2.619-0.633-3.479c-1.139-1.386-3.225-1.573-5.125-1.573l-32.518,0.005c-11.542,0-23.085-0.002-34.646-0.007
		c-1.863,0-5.74,0-5.897,4.133c-0.049,1.272,0.27,2.273,0.946,2.977c1.166,1.211,3.086,1.211,4.487,1.211l34.078-0.002
		c2.727,0,5.452,0.005,8.179,0.011C129.538,108.352,132.266,108.357,134.993,108.357z"/>
	<path d="M51.119,120.659c-0.694,0.712-1.029,1.726-0.996,3.013c0.107,4.191,3.996,4.191,5.864,4.191l29.546,0.063
		c10.462,0,20.926,0.074,31.388,0.074h0.016c1.542,0,3.468-0.224,4.689-1.461c0.726-0.735,1.086-1.975,1.07-3.218
		c-0.05-4.085-3.898-4.321-5.748-4.321h-0.165c-4.648,0-9.294,0.012-13.942,0.012L87.693,119H71.79
		c-5.313,0-10.626,0.211-16.004,0.206C54.327,119.206,52.329,119.417,51.119,120.659z M116.937,126.871L116.937,126.871
		L116.937,126.871L116.937,126.871z"/>
	<path d="M84.527,135c-2.323,0-4.647,0.201-6.972,0.195c-2.326-0.007-4.651,0.09-6.978,0.09c-4.201,0-9.744,0.071-15.364,0.22
		c-1.89,0.05-4.563,2.136-4.934,3.827c-0.265,1.209-0.079,2.238,0.553,3.032c0.817,1.028,2.321,1.567,4.471,1.592
		c2.132,0.023,4.264,0.034,6.396,0.034l8.104-0.01l9.198,0.011c2.024,0,4.05-0.003,6.073-0.017c2.012-0.012,3.431-0.469,4.34-1.397
		c0.719-0.734,1.073-1.932,1.055-3.146c-0.03-1.927-1.004-4.431-5.478-4.431H84.527z"/>
	<path d="M81.367,175.993c-1.257,0-2.593,0.721-3.971,2.143c-2.587,2.67-5.178,5.334-8.06,8.298l-1.613,1.659
		c-0.444-0.489-0.869-0.971-1.282-1.439c-1.467-1.66-2.852-3.229-4.495-4.474c-0.869-0.658-2.315-1.084-3.687-1.084
		c-0.604,0-1.464,0.092-2.117,0.528c-1.227,0.819-1.569,1.827-1.642,2.528c-0.131,1.276,0.506,2.7,1.794,4.01
		c1.949,1.983,3.593,3.641,5.274,5.284c2.167,2.115,4.235,3.143,6.323,3.143c2.005,0,3.961-0.941,5.98-2.879
		c3.397-3.259,6.685-6.473,9.563-9.967c1.089-1.32,1.865-4.593,0.768-6.13C83.248,176.274,82.135,175.993,81.367,175.993z"/>
	<path d="M104.527,144.087c0.995,0,1.994-0.027,2.993-0.056c0.98-0.027,1.961-0.055,2.938-0.055l0.677-0.008
		c0.783,0.008,1.567,0.029,2.353,0.051c1.028,0.027,2.057,0.055,3.082,0.055c1.808,0,3.276-0.089,4.619-0.279
		c1.352-0.19,2.364-1.314,3.343-2.401c0.39-0.433,0.758-0.842,1.125-1.168l0.897-0.799l-0.948-0.737
		c-0.367-0.286-0.745-0.659-1.146-1.054c-1.006-0.992-2.046-2.018-3.353-2.074c-7.215-0.31-14.245-0.306-20.912,0.01
		c-1.362,0.063-2.45,1.15-3.503,2.201c-0.423,0.422-0.822,0.82-1.212,1.128l-0.991,0.781l0.988,0.786
		c0.389,0.31,0.778,0.693,1.191,1.1c1.026,1.01,2.088,2.055,3.448,2.249C101.402,144.001,102.804,144.087,104.527,144.087z"/>
	<path d="M132.084,127.701c1.351,0.169,2.825,0.248,4.641,0.248c1.014,0,2.029-0.023,3.046-0.047c1-0.023,2.001-0.047,3.032-0.047
		c0.001,0,0.001,0,0.001,0c0.973,0.001,1.949,0.028,2.925,0.055c1.011,0.028,2.021,0.056,3.026,0.056
		c1.714,0,3.108-0.083,4.391-0.262c1.871-0.261,4.483-2.096,4.865-3.868c0.301-1.398-0.148-2.326-0.578-2.857
		c-0.81-1.002-2.309-1.553-4.243-1.553c-6.944,0.014-13.855,0.021-20.865-0.005c-1.846,0-3.31,0.538-4.123,1.515
		c-0.444,0.535-0.92,1.474-0.654,2.909C127.875,125.625,130.356,127.484,132.084,127.701z"/>
</g>
</svg>
