<?xml version="1.0" encoding="utf-8"?>
<!-- Generator: Adobe Illustrator 16.0.0, SVG Export Plug-In . SVG Version: 6.00 Build 0)  -->
<!DOCTYPE svg PUBLIC "-//W3C//DTD SVG 1.1//EN" "http://www.w3.org/Graphics/SVG/1.1/DTD/svg11.dtd">
<svg version="1.1" id="Layer_1" xmlns="http://www.w3.org/2000/svg" xmlns:xlink="http://www.w3.org/1999/xlink" x="0px" y="0px"
	 width="250px" height="250px" viewBox="0 0 250 250" enable-background="new 0 0 250 250" xml:space="preserve">
<g>
	<path fill-rule="evenodd" clip-rule="evenodd" d="M44.287,226.119c0-64.308,0-128.083,0-192.173
		c1.586-0.078,3.011-0.211,4.438-0.211c37.442-0.011,74.89-0.053,112.333,0.105c2.176,0.009,4.87,1.115,6.435,2.63
		c10.484,10.149,20.729,20.545,31.049,30.865c6.857,6.854,6.202,6.591,7.171,16.161c-0.199,11.16-0.003,17.085,0,32.755
		c0,55.928,0,53.476,0,110.027 M52.654,218c48.496,0,96.604,0,144.846,0c0-45.762,0-91.242,0-137.247c-13.265,0-26.208,0-39.759,0
		c0-13.417,0-26.324,0-39.253c-35.371,0-70.12,0-105.087,0C52.654,100.43,52.654,158.971,52.654,218z M165,73.554
		c10.53,0,20.126,0,27.463,0C183.517,64.833,173.766,55.327,165,46.78C165,54.101,165,63.444,165,73.554z"/>
	<path fill-rule="evenodd" clip-rule="evenodd" d="M129.026,155.044c0,4.085,0,7.993,0,12.233c-18.112,0-36.075,0-54.291,0
		c0-4.15,0-8.045,0-12.233C92.858,155.044,110.83,155.044,129.026,155.044z"/>
	<path fill-rule="evenodd" clip-rule="evenodd" d="M106.132,180.54c0,4.119,0,7.911,0,12.062c-10.407,0-20.755,0-31.379,0
		c0-3.979,0-7.876,0-12.062C85.163,180.54,95.386,180.54,106.132,180.54z"/>
</g>
</svg>
