<?xml version="1.0" encoding="utf-8"?>
<!-- Generator: Adobe Illustrator 16.0.0, SVG Export Plug-In . SVG Version: 6.00 Build 0)  -->
<!DOCTYPE svg PUBLIC "-//W3C//DTD SVG 1.1//EN" "http://www.w3.org/Graphics/SVG/1.1/DTD/svg11.dtd">
<svg version="1.1" id="Layer_1" xmlns="http://www.w3.org/2000/svg" xmlns:xlink="http://www.w3.org/1999/xlink" x="0px" y="0px"
	 width="250px" height="250px" viewBox="0 0 250 250" enable-background="new 0 0 250 250" xml:space="preserve">
<g>
	<path fill-rule="evenodd" clip-rule="evenodd" d="M23.248,42.979c8.699,0,17.299,0,26.145,0c0-4.436,0-8.704,0-13.178
		c0.979,0,1.713,0,2.445,0c8.627,0,17.256,0.03,25.881-0.044c0.922-0.008,2.018-0.405,2.727-0.991
		c8.912-7.361,20.973-7.382,29.813-0.059c0.754,0.624,1.926,1.038,2.908,1.047c8.559,0.081,17.117,0.047,25.676,0.047
		c0.744,0,1.486,0,2.404,0c0,4.355,0,8.572,0,13.037c8.816,0,17.465,0,26.334,0c0,16.845,0,33.444,0,50.365
		c13.285-2.423,25.484-0.115,36.979,7.108c1.854-2.087,3.664-4.123,5.355-6.023c5.004,5.021,9.717,9.753,14.676,14.731
		c-1.27,1.222-2.725,2.749-4.318,4.111c-1.201,1.021-1.313,1.818-0.469,3.24c16.246,27.429,2.785,62.524-27.639,72.096
		c-7.359,2.315-14.875,2.899-22.508,1.577c-0.404-0.071-0.814-0.112-1.223-0.138c-0.193-0.012-0.389,0.046-0.793,0.1
		c0,12.221,0,24.442,0,36.768c-48.238,0-96.262,0-144.393,0C23.248,165.498,23.248,104.326,23.248,42.979z M129.172,131.707
		c-24.473,0-48.799,0-73.148,0c0,20.845,0,41.55,0,62.499c21.924,0,43.715,0,65.436,0c0,2.266,0,4.28,0,6.217
		c-24.084,0-48.008,0-71.863,0c0-25.179,0-50.197,0-75.312c0.979,0,1.795,0,2.611,0c25.674,0,51.346-0.012,77.02,0.031
		c1.447,0.003,2.143-0.406,2.684-1.797c3.141-8.084,8.176-14.822,14.955-20.221c1.129-0.899,1.6-1.778,1.592-3.237
		c-0.061-11.706-0.033-23.413-0.039-35.121c0-0.666-0.059-1.332-0.094-2.105c-2.35,0-4.566,0-6.867,0
		c-0.084,1.083-0.162,2.067-0.238,3.035c-30.658,0-61.154,0-91.709,0c-0.057-1.068-0.107-2.001-0.158-2.962
		c-2.379,0-4.646,0-6.818,0c0,48.273,0,96.36,0,144.419c35.346,0,70.51,0,105.625,0c0.109-0.239,0.209-0.358,0.209-0.478
		c0.023-8.214,0.045-16.429,0.033-24.643c0-0.431-0.158-1.001-0.455-1.268c-2.068-1.851-4.191-3.639-6.605-5.712
		c0,8.669,0,17.026,0,25.396c-4.471,0-8.676,0-12.889,0c0-2.151,0-4.165,0-6.424c2.209,0,4.289,0,6.436,0
		c0-8.941,0.031-17.635-0.035-26.326c-0.01-1.103-0.324-2.301-0.826-3.284c-4.51-8.815-6.496-18.098-5.396-27.984
		C128.801,134.887,128.984,133.344,129.172,131.707z M199.15,104.777c-13.418-9.089-37.525-9.325-53.209,7.901
		c-15.58,17.109-14.807,43.195,1.686,59.322c16.48,16.115,42.367,16.436,59.199,0.654c16.922-15.868,16.32-39.802,7.168-53.111
		c-16.494,16.497-32.967,32.971-49.172,49.179c-9.313-9.321-18.428-18.444-27.219-27.24c4.531-4.545,9.246-9.274,14.342-14.388
		c4.105,4.137,8.377,8.44,12.365,12.459C175.885,128.001,187.533,116.375,199.15,104.777z M29.674,220.279
		c43.934,0,87.645,0,131.502,0c0-10.607,0.008-21.072-0.027-31.536c-0.002-0.383-0.324-0.965-0.65-1.113
		c-1.775-0.809-3.598-1.509-5.705-2.368c0,9.661,0,19.004,0,28.288c-39.752,0-79.279,0-118.771,0c0-52.538,0-104.895,0-157.515
		c4.508,0,8.908,0,13.256,0c0-2.353,0-4.436,0-6.48c-6.623,0-13.088,0-19.604,0C29.674,106.517,29.674,163.327,29.674,220.279z
		 M56.072,36.255c0,7.732,0,15.387,0,22.956c26.354,0,52.535,0,78.65,0c0-7.73,0-15.29,0-22.956c-8.234,0-16.307,0.04-24.379-0.054
		c-0.939-0.01-2.107-0.528-2.77-1.202c-6.996-7.12-17.373-7.134-24.344-0.043c-0.699,0.712-1.951,1.23-2.953,1.242
		C72.27,36.298,64.262,36.255,56.072,36.255z M151.688,136.347c-1.893,1.919-3.58,3.632-4.953,5.024
		c5.912,5.909,11.979,11.972,17.629,17.618c16.787-16.777,33.799-33.779,50.441-50.414c-1.375-1.486-2.975-3.215-4.809-5.196
		c-15.227,15.227-30.453,30.456-45.709,45.711C160.117,144.873,155.936,140.644,151.688,136.347z M154.881,97.699
		c1.742-0.732,3.08-1.425,4.498-1.855c1.41-0.429,1.844-1.171,1.838-2.65c-0.061-13.95-0.035-27.902-0.041-41.854
		c0-0.592-0.076-1.184-0.121-1.819c-6.598,0-13.057,0-19.6,0c0,2.201,0,4.281,0,6.625c4.502,0,8.898,0,13.426,0
		C154.881,70.07,154.881,83.732,154.881,97.699z"/>
	<path fill-rule="evenodd" clip-rule="evenodd" d="M128.125,151.404c0,12.093,0,23.911,0,35.88c-14.094,0-28.15,0-42.486,0
		c0-3.224,0-6.53,0-9.942c-6.68,0.813-12.418-0.755-17.01-5.34c-5.92-5.914-7.551-13.018-4.77-20.926
		c2.604-7.398,9.711-12.6,17.492-12.771c8.363-0.186,14.631,3.544,18.418,11.009c0.873,1.721,1.783,2.146,3.543,2.127
		C111.51,151.358,119.711,151.404,128.125,151.404z M92.047,180.852c10.041,0,19.781,0,29.578,0c0-7.684,0-15.235,0-22.83
		c-6.623,0-13.131,0-19.658,0c-0.426,6.996-3.307,12.46-9.023,16.366c-0.426,0.291-0.822,0.932-0.855,1.436
		C91.979,177.445,92.047,179.079,92.047,180.852z M93.502,151.333c-3.473-5.924-10.41-8.163-16.422-5.579
		c-6.145,2.639-9.348,9.294-7.578,15.737c1.695,6.166,8.076,10.422,14.26,9.58c1.414-0.192,1.896-0.761,1.867-2.246
		c-0.104-5.062-0.041-10.126-0.041-15.19c0-0.716,0-1.434,0-2.302C88.355,151.333,90.789,151.333,93.502,151.333z M92.238,157.966
		c0,2.758,0,5.405,0,8.469c2.141-2.721,3.246-5.314,3.15-8.469C94.238,157.966,93.248,157.966,92.238,157.966z"/>
	<path fill-rule="evenodd" clip-rule="evenodd" d="M95.232,79.247c2.666-2,5.211-3.958,7.818-5.828
		c0.623-0.447,1.455-0.852,2.191-0.855c11.707-0.051,23.412-0.034,35.119-0.027c0.258,0.001,0.518,0.068,0.873,0.118
		c0,2.086,0,4.1,0,6.326c-0.826,0-1.561,0-2.295,0c-10.063,0-20.125,0.035-30.189-0.034c-1.744-0.012-3.15,0.39-4.482,1.519
		c-1.609,1.364-3.359,2.565-5.17,3.93c3.313,6.578,3.783,13.262,0.928,20.029c-2.156,5.11-5.762,8.954-10.703,11.463
		c-9.949,5.056-22.02,2.224-28.682-6.667c-6.76-9.021-6.059-21.317,1.748-29.541c4.41-4.645,9.904-7.003,16.283-7.124
		C85.061,72.434,90.52,74.862,95.232,79.247z M88.762,108.407c-1.711-1.036-3.283-1.985-4.854-2.938
		c-2.684-1.631-6.432-2.672-7.752-5.058c-1.369-2.474-0.404-6.25-0.422-9.456c-0.023-3.808-0.006-7.616-0.006-11.441
		C69.918,80.07,64.297,85.491,62.893,91.7c-1.605,7.099,1.461,14.283,7.664,17.953C76.373,113.097,83.992,112.652,88.762,108.407z
		 M93.104,103.489c3.324-5.164,3.053-12.032-0.502-17.264c-2.66-3.915-7.588-6.984-10.416-6.427c0,5.313-0.027,10.644,0.035,15.972
		c0.006,0.563,0.373,1.357,0.826,1.642C86.334,99.48,89.689,101.444,93.104,103.489z"/>
	<path fill-rule="evenodd" clip-rule="evenodd" d="M111.971,92.007c0-2.168,0-4.134,0-6.216c5.389,0,10.686,0,16.104,0
		c0,2.07,0,4.083,0,6.216C122.719,92.007,117.42,92.007,111.971,92.007z"/>
	<path fill-rule="evenodd" clip-rule="evenodd" d="M134.996,85.772c2.205,0,4.168,0,6.238,0c0,2.112,0,4.125,0,6.246
		c-2.105,0-4.117,0-6.238,0C134.996,89.915,134.996,87.902,134.996,85.772z"/>
</g>
</svg>
