<?xml version="1.0" encoding="utf-8"?>
<!-- Generator: Adobe Illustrator 16.0.0, SVG Export Plug-In . SVG Version: 6.00 Build 0)  -->
<!DOCTYPE svg PUBLIC "-//W3C//DTD SVG 1.1//EN" "http://www.w3.org/Graphics/SVG/1.1/DTD/svg11.dtd">
<svg version="1.1" id="Layer_1" xmlns="http://www.w3.org/2000/svg" xmlns:xlink="http://www.w3.org/1999/xlink" x="0px" y="0px"
	 width="250px" height="250px" viewBox="0 0 250 250" enable-background="new 0 0 250 250" xml:space="preserve">
<g>
	<path fill-rule="evenodd" clip-rule="evenodd" d="M226.675,227.018c-67.886,0-135.563,0-203.35,0c0-43.692,0-87.291,0-131.066
		c19.613,0,39.147,0,58.926,0c0-24.131,0-48.09,0-72.288c0.972,0,1.702,0,2.431,0c31.807,0,63.61,0.009,95.416-0.029
		c1.411-0.001,2.396,0.393,3.396,1.399c13.944,14.009,27.945,27.963,41.873,41.99c0.712,0.717,1.253,1.97,1.254,2.975
		c0.061,51.709,0.054,103.418,0.054,155.129C226.675,225.723,226.675,226.319,226.675,227.018z M29.804,102.433
		c0,39.514,0,78.801,0,118.121c54.746,0,109.351,0,163.979,0c0-39.455,0-78.788,0-118.121
		C139.048,102.433,84.49,102.433,29.804,102.433z M157.76,59.888c0,12.023,0,23.943,0,35.875c2.326,0,4.406,0,6.727,0
		c0-14.243,0-28.351,0-42.63c4.454,0,8.668,0,12.931,0c0-3.351,0-6.524,0-9.778c-25.182,0-50.24,0-75.344,0
		c0,17.558,0,35.005,0,52.378c3.35,0,6.525,0,9.865,0c0-9.848,0-19.53,0-29.264c6.563,0,12.95,0,19.584,0c0,9.851,0,19.583,0,29.278
		c2.328,0,4.409,0,6.657,0c0-12.021,0-23.892,0-35.859C144.738,59.888,151.128,59.888,157.76,59.888z M200.484,220.529
		c6.68,0,13.136,0,19.626,0c0-49.27,0-98.398,0-147.622c-2.195,0-4.274,0-6.59,0c0,25.156,0,50.204,0,75.497
		c-4.494,0-8.759,0-13.036,0C200.484,172.565,200.484,196.479,200.484,220.529z M88.902,30.19c0,21.998,0,43.771,0,65.58
		c2.217,0,4.297,0,6.614,0c0-19.706,0-39.282,0-59.091c27.473,0,54.707,0,81.853,0c0-2.32,0-4.402,0-6.488
		C147.813,30.19,118.43,30.19,88.902,30.19z M206.962,141.789c0-23.09,0-45.951,0-68.874c-7.677,0-15.226,0-22.865,0
		c0,7.667,0,15.215,0,23.007c5.456,0,10.812,0,16.394,0c0,15.44,0,30.636,0,45.867C202.757,141.789,204.787,141.789,206.962,141.789
		z M184.131,35.402c0,10.22,0,20.508,0,30.798c10.414,0,20.683,0,30.82,0C204.675,55.93,194.404,45.668,184.131,35.402z
		 M170.984,59.748c0,12.146,0,24.061,0,36.032c2.208,0,4.285,0,6.39,0c0-12.086,0-24.049,0-36.032
		C175.179,59.748,173.15,59.748,170.984,59.748z M144.714,66.312c0,9.954,0,19.681,0,29.471c2.204,0,4.281,0,6.395,0
		c0-9.893,0-19.668,0-29.471C148.916,66.312,146.888,66.312,144.714,66.312z M124.885,95.829c0-7.755,0-15.293,0-22.924
		c-2.193,0-4.27,0-6.411,0c0,7.695,0,15.282,0,22.924C120.655,95.829,122.684,95.829,124.885,95.829z"/>
	<path fill-rule="evenodd" clip-rule="evenodd" d="M29.854,49.675c0-2.111,0-4.073,0-6.172c2.078,0,4.09,0,6.24,0
		c0,2.011,0,4.022,0,6.172C34.081,49.675,32.07,49.675,29.854,49.675z"/>
	<path fill-rule="evenodd" clip-rule="evenodd" d="M42.991,49.665c0-2.082,0-4.044,0-6.153c2.055,0,4.066,0,6.226,0
		c0,1.981,0,3.992,0,6.153C47.236,49.665,45.225,49.665,42.991,49.665z"/>
	<path fill-rule="evenodd" clip-rule="evenodd" d="M56.142,49.647c0-2.028,0-3.991,0-6.119c1.999,0,4.012,0,6.193,0
		c0,1.926,0,3.938,0,6.119C60.407,49.647,58.395,49.647,56.142,49.647z"/>
	<path fill-rule="evenodd" clip-rule="evenodd" d="M75.562,43.502c0,2.11,0,4.073,0,6.172c-2.078,0-4.09,0-6.239,0
		c0-2.012,0-4.023,0-6.172C71.333,43.502,73.345,43.502,75.562,43.502z"/>
	<path fill-rule="evenodd" clip-rule="evenodd" d="M29.874,62.831c0-2.177,0-4.14,0-6.216c2.103,0,4.113,0,6.24,0
		c0,2.078,0,4.088,0,6.216C34.037,62.831,32.027,62.831,29.874,62.831z"/>
	<path fill-rule="evenodd" clip-rule="evenodd" d="M36.078,76c-2.065,0-4.027,0-6.142,0c0-2.037,0-4.047,0-6.214
		c1.963,0,3.975,0,6.142,0C36.078,71.749,36.078,73.759,36.078,76z"/>
	<path fill-rule="evenodd" clip-rule="evenodd" d="M36.078,89.135c-2.065,0-4.027,0-6.142,0c0-2.038,0-4.048,0-6.215
		c1.963,0,3.975,0,6.142,0C36.078,84.883,36.078,86.893,36.078,89.135z"/>
	<path fill-rule="evenodd" clip-rule="evenodd" d="M36.453,109.139c50.273,0,100.441,0,150.714,0c0,34.95,0,69.794,0,104.745
		c-50.271,0-100.438,0-150.714,0C36.453,178.935,36.453,144.09,36.453,109.139z M180.688,207.46c0-30.753,0-61.283,0-91.862
		c-45.987,0-91.836,0-137.719,0c0,30.693,0,61.271,0,91.862C88.944,207.46,134.744,207.46,180.688,207.46z"/>
	<path fill-rule="evenodd" clip-rule="evenodd" d="M120.366,171.023c-3.255-3.729-6.529-7.485-9.81-11.237
		c-3.239-3.705-6.507-7.392-9.715-11.125c-0.698-0.812-1.32-0.973-2.428-0.834c-1.993,0.25-4.045,0.003-6.066,0.104
		c-0.659,0.032-1.606,0.306-1.9,0.786c-5.897,9.689-11.69,19.442-17.591,29.131c-0.753,1.235-0.065,1.841,0.48,2.68
		c2.814,4.326,3.137,8.853,0.687,13.394c-2.486,4.607-6.527,6.997-11.738,6.881c-5.294-0.117-9.279-2.724-11.533-7.543
		c-2.22-4.745-1.682-9.392,1.564-13.493c3.228-4.076,7.529-5.79,12.717-4.709c1.296,0.27,2.036,0.171,2.789-1.104
		c5.623-9.534,11.34-19.013,17.044-28.502c0.512-0.851,0.823-1.476,0.096-2.521c-4.102-5.912-3.271-13.085,1.904-17.55
		c5.013-4.325,12.308-4.254,17.241,0.171c5.103,4.575,5.739,11.64,1.588,17.609c-0.117,0.168-0.225,0.342-0.407,0.618
		c0.235,0.347,0.456,0.754,0.756,1.098c5.938,6.799,11.906,13.571,17.811,20.4c0.843,0.976,1.479,1.238,2.727,0.662
		c3.65-1.687,7.31-1.337,11.141,0.531c5.141-6.852,10.291-13.714,15.528-20.692c-2.497-2.243-4.337-4.769-4.993-8.068
		c-1.362-6.835,3.068-13.673,9.928-15.176c7.103-1.556,14.051,2.824,15.585,9.827c1.537,7.013-2.763,13.966-9.621,15.552
		c-0.6,0.14-1.245,0.426-1.808,0.317c-2.637-0.507-3.853,1.158-5.19,2.984c-4.483,6.121-9.074,12.167-13.646,18.224
		c-0.654,0.867-0.962,1.522-0.38,2.706c2.828,5.732,1.329,12.177-3.561,16.032c-4.776,3.767-11.362,3.76-16.135-0.017
		c-4.824-3.818-6.288-10.163-3.664-15.881C119.936,171.907,120.116,171.545,120.366,171.023z M95.566,128.62
		c-3.688-0.077-6.719,2.798-6.796,6.444c-0.077,3.681,2.804,6.724,6.443,6.802c3.672,0.08,6.723-2.815,6.803-6.45
		C102.096,131.742,99.205,128.695,95.566,128.62z M161.088,128.62c-3.673-0.013-6.635,2.927-6.648,6.593
		c-0.011,3.665,2.937,6.641,6.594,6.653c3.661,0.011,6.64-2.942,6.653-6.598C167.699,131.604,164.748,128.632,161.088,128.62z
		 M138.135,177.9c-0.012-3.656-2.986-6.605-6.651-6.595s-6.605,2.974-6.595,6.646c0.012,3.659,2.982,6.612,6.646,6.6
		C135.19,184.539,138.146,181.561,138.135,177.9z M62.506,194.402c3.661,0.022,6.652-2.921,6.676-6.574
		c0.022-3.666-2.918-6.65-6.574-6.672c-3.675-0.022-6.65,2.906-6.672,6.569C55.913,191.394,58.851,194.379,62.506,194.402z"/>
	<path fill-rule="evenodd" clip-rule="evenodd" d="M174.038,181.444c0,2.006,0,3.966,0,6.104c-1.976,0-3.988,0-6.176,0
		c0-1.904,0-3.917,0-6.104C169.766,181.444,171.778,181.444,174.038,181.444z"/>
	<path fill-rule="evenodd" clip-rule="evenodd" d="M160.861,200.783c-2.095,0-4.057,0-6.161,0c0-2.067,0-4.077,0-6.235
		c1.993,0,4.004,0,6.161,0C160.861,196.542,160.861,198.554,160.861,200.783z"/>
	<path fill-rule="evenodd" clip-rule="evenodd" d="M174.067,194.543c0,2.112,0,4.074,0,6.174c-2.079,0-4.09,0-6.24,0
		c0-2.013,0-4.023,0-6.174C169.839,194.543,171.85,194.543,174.067,194.543z"/>
</g>
</svg>
