<?xml version="1.0" encoding="utf-8"?>
<!-- Generator: Adobe Illustrator 16.0.0, SVG Export Plug-In . SVG Version: 6.00 Build 0)  -->
<!DOCTYPE svg PUBLIC "-//W3C//DTD SVG 1.1//EN" "http://www.w3.org/Graphics/SVG/1.1/DTD/svg11.dtd">
<svg version="1.1" id="Layer_1" xmlns="http://www.w3.org/2000/svg" xmlns:xlink="http://www.w3.org/1999/xlink" x="0px" y="0px"
	 width="250px" height="250px" viewBox="0 0 250 250" enable-background="new 0 0 250 250" xml:space="preserve">
<g>
	<g>
		<path fill-rule="evenodd" clip-rule="evenodd" d="M22,148.403c7.7,0,15.299,0,23.046,0c0-24.477,0-48.777,0-73.285
			c-4.091,0-8.216,0-12.894,0c9.986-14.271,19.693-28.141,29.622-42.327c8.835,12.611,17.538,25.035,26.242,37.458
			c0.124-0.044,0.247-0.088,0.37-0.134c0-15.974,0-31.947,0-48.084c46.605,0,93.026,0,139.613,0c0,68.54,0,137.152,0,205.938
			c-68.57,0-137.233,0-206,0C22,201.479,22,175.03,22,148.403z M214.745,48.607c0,33.215,0,66.322,0,99.534
			c-13.24,0-26.375,0-39.762,0c0-4.423,0-8.745,0-13.07c-22.331,0-44.411,0-66.522,0c0,4.468,0,8.795,0,13.372
			c17.765,0,35.399,0,53.206,0c0,24.491,0,48.731,0,73.041c20.036,0,39.897,0,59.781,0c0-64.412,0-128.705,0-192.907
			c-42.234,0-84.286,0-126.276,0c0,40.005,0,79.839,0,119.634c2.275,0,4.385,0,6.662,0c0-33.275,0-66.392,0-99.604
			C139.553,48.607,177.099,48.607,214.745,48.607z M154.969,155.018c-19.881,0-39.533,0-59.186,0
			c19.414,3.183,29.674,19.267,29.164,34.274c-0.505,14.945-11.229,29.445-29.413,32.137c19.809,0,39.616,0,59.435,0
			C154.969,199.231,154.969,177.208,154.969,155.018z M87.896,221.516c-17.058-2.52-28.552-16.095-29.324-31.645
			c-0.43-8.659,2.221-16.4,7.836-23.037c5.588-6.605,12.782-10.375,21.286-11.774c-19.709,0-39.42,0-59.127,0
			c0,22.228,0,44.3,0,66.456C48.432,221.516,68.164,221.516,87.896,221.516z M65.051,188.117
			c-0.033,14.789,11.846,26.791,26.553,26.828c14.779,0.036,26.793-11.858,26.828-26.561c0.035-14.782-11.854-26.788-26.561-26.82
			C77.074,161.532,65.085,173.403,65.051,188.117z M71.93,148.29c0-26.729,0-53.235,0-79.896c2.289,0,4.338,0,6.833,0
			c-5.745-8.213-11.267-16.107-16.981-24.277C56.047,52.309,50.523,60.2,44.713,68.503c2.652,0,4.759,0,7.096,0
			c0,26.731,0,53.235,0,79.787C58.547,148.29,65.045,148.29,71.93,148.29z M88.348,148.287c0-24.514,0-48.799,0-73.159
			c-3.342,0-6.559,0-9.82,0c0,24.453,0,48.787,0,73.159C81.857,148.287,85.024,148.287,88.348,148.287z M108.424,61.673
			c22.312,0,44.377,0,66.467,0c0-2.251,0-4.358,0-6.457c-22.25,0-44.366,0-66.467,0C108.424,57.455,108.424,59.514,108.424,61.673z
			 M174.938,68.484c-22.301,0-44.366,0-66.487,0c0,2.24,0,4.348,0,6.48c22.238,0,44.352,0,66.487,0
			C174.938,72.737,174.938,70.678,174.938,68.484z M174.945,81.793c-22.296,0-44.361,0-66.502,0c0,2.233,0,4.34,0,6.492
			c22.234,0,44.348,0,66.502,0C174.945,86.066,174.945,84.007,174.945,81.793z M108.409,101.637c22.295,0,44.36,0,66.495,0
			c0-2.235,0-4.342,0-6.49c-22.233,0-44.349,0-66.495,0C108.409,97.37,108.409,99.427,108.409,101.637z M108.42,114.941
			c22.306,0,44.371,0,66.475,0c0-2.245,0-4.353,0-6.467c-22.245,0-44.36,0-66.475,0C108.42,110.707,108.42,112.766,108.42,114.941z
			 M174.945,121.74c-22.293,0-44.358,0-66.503,0c0,2.231,0,4.339,0,6.495c22.232,0,44.347,0,66.503,0
			C174.945,126.015,174.945,123.957,174.945,121.74z M181.648,61.684c8.983,0,17.736,0,26.545,0c0-2.239,0-4.345,0-6.479
			c-8.926,0-17.725,0-26.545,0C181.648,57.431,181.648,59.487,181.648,61.684z M181.646,75.001c8.983,0,17.737,0,26.548,0
			c0-2.238,0-4.343,0-6.481c-8.924,0-17.725,0-26.548,0C181.646,70.745,181.646,72.8,181.646,75.001z M208.223,81.808
			c-8.993,0-17.747,0-26.531,0c0,2.246,0,4.352,0,6.463c8.933,0,17.734,0,26.531,0C208.223,86.037,208.223,83.98,208.223,81.808z
			 M181.653,101.625c8.99,0,17.741,0,26.533,0c0-2.243,0-4.348,0-6.467c-8.929,0-17.729,0-26.533,0
			C181.653,97.389,181.653,99.445,181.653,101.625z M208.225,108.437c-8.99,0-17.744,0-26.533,0c0,2.245,0,4.351,0,6.468
			c8.928,0,17.729,0,26.533,0C208.225,112.674,208.225,110.617,208.225,108.437z M181.732,121.722c0,2.362,0,4.47,0,6.531
			c8.921,0,17.672,0,26.451,0c0-2.249,0-4.355,0-6.531C199.299,121.722,190.548,121.722,181.732,121.722z M181.653,141.572
			c8.99,0,17.741,0,26.533,0c0-2.243,0-4.348,0-6.467c-8.929,0-17.729,0-26.533,0C181.653,137.336,181.653,139.393,181.653,141.572z
			"/>
		<path fill-rule="evenodd" clip-rule="evenodd" d="M101.896,41.615c0-2.14,0-4.18,0-6.325c23.223,0,46.343,0,69.57,0
			c0,2.142,0,4.18,0,6.325C148.244,41.615,125.124,41.615,101.896,41.615z"/>
		<path fill-rule="evenodd" clip-rule="evenodd" d="M168.522,168.422c15.408,0,30.714,0,46.173,0c0,2.064,0,4.105,0,6.302
			c-15.308,0-30.661,0-46.173,0C168.522,172.734,168.522,170.695,168.522,168.422z"/>
		<path fill-rule="evenodd" clip-rule="evenodd" d="M214.745,35.29c0,2.143,0,4.181,0,6.327c-12.129,0-24.154,0-36.285,0
			c0-2.143,0-4.183,0-6.327C190.591,35.29,202.614,35.29,214.745,35.29z"/>
		<path fill-rule="evenodd" clip-rule="evenodd" d="M201.436,181.768c0,2.229,0,4.22,0,6.317c-11.018,0-21.932,0-32.958,0
			c0-2.13,0-4.168,0-6.317C179.485,181.768,190.399,181.768,201.436,181.768z"/>
		<path fill-rule="evenodd" clip-rule="evenodd" d="M208.454,181.729c2.14,0,4.131,0,6.258,0c0,2.106,0,4.146,0,6.325
			c-2.039,0-4.077,0-6.258,0C208.454,186.016,208.454,183.978,208.454,181.729z"/>
		<path fill-rule="evenodd" clip-rule="evenodd" d="M141.829,168.102c0-2.202,0-4.191,0-6.299c2.127,0,4.166,0,6.324,0
			c0,2.103,0,4.14,0,6.299C146.053,168.102,144.014,168.102,141.829,168.102z"/>
		<path fill-rule="evenodd" clip-rule="evenodd" d="M148.201,208.435c0,2.122,0,4.111,0,6.246c-2.096,0-4.135,0-6.319,0
			c0-2.021,0-4.061,0-6.246C143.903,208.435,145.942,208.435,148.201,208.435z"/>
		<path fill-rule="evenodd" clip-rule="evenodd" d="M41.645,161.86c0,2.168,0,4.158,0,6.252c-2.141,0-4.178,0-6.326,0
			c0-2.135,0-4.172,0-6.252C37.506,161.86,39.593,161.86,41.645,161.86z"/>
		<path fill-rule="evenodd" clip-rule="evenodd" d="M35.312,214.65c0-2.03,0-4.02,0-6.187c2.001,0,4.042,0,6.26,0
			c0,1.929,0,3.969,0,6.187C39.645,214.65,37.604,214.65,35.312,214.65z"/>
	</g>
	<text transform="matrix(1 0 0 1 76.1563 204.7549)" font-family="'Tahoma-Bold'" font-size="50.2878">$</text>
</g>
</svg>
